# xmcd
#
# Track frame offsets:
#	150
#	16179
#	36321
#	49344
#	64998
#	77328
#	89285
#	102819
#	118344
#	130791
#	141215
#	152846
#	164728
#	177760
#	188983
#	202868
#	216019
#	229366
#	240706
#
# Disc length: 3407 seconds
#
# Revision: 1
# Processed by: cddbd v1.5.2PL0 Copyright (c) Steve Scherf et al.
# Submitted via: audiograbber 1.83.01
#
DISCID=0a0d4d13
DTITLE=Stardust - Stardust 064
DYEAR=2006
DGENRE=Country
TTITLE0=Farmer큦 Prayer  - Troy Cook Jr
TTITLE1=Angels Among Us - Becky Hobbs
TTITLE2=Rose Of San Antone  - Beau Renfro and Gene Melendrez
TTITLE3=Wind In His Sail  - Susan Marshall
TTITLE4=47 Miles  - Jack Blanchard and Misty Morgan
TTITLE5=King Bee  - Rooster Quantrell
TTITLE6=Goodbye To The Streets Of Bakersfield  - Jerri Arnold
TTITLE7=Green Heart  - Silver Lake
TTITLE8=Day Gone Dead  - Lawrence Miller
TTITLE9=Back In Texas  - Jon Doc Meeks
TTITLE10=Let큦 Go Fishing  - Buste Doss
TTITLE11=Good Friends  - Dale Brown
TTITLE12=Thinking Of Christmas And Home - Mayf Nutter
TTITLE13=Pretty Paper  - Hondo Austin
TTITLE14=Sleigh Ride With Santa  - Julie Taylor
TTITLE15=Momma큦 Christmas Tree  - Ron Thompson
TTITLE16=What Christmas Meant To Be  - Ernie Ashworth
TTITLE17=Mother큦 Spending Christmas With Jesus This Year  - Angie Heart
TTITLE18=I Love The Lord  - John Woodall
EXTD=
EXTT0=
EXTT1=
EXTT2=
EXTT3=
EXTT4=
EXTT5=
EXTT6=
EXTT7=
EXTT8=
EXTT9=
EXTT10=
EXTT11=
EXTT12=
EXTT13=
EXTT14=
EXTT15=
EXTT16=
EXTT17=
EXTT18=
PLAYORDER=
